<svg width="24" height="24" viewBox="0 0 24 24" fill="none" xmlns="http://www.w3.org/2000/svg">
	<path d="M13 2H11V5H13V2Z" fill="currentColor" />
	<path d="M6 2H4V9H6V2Z" fill="currentColor" />
	<path d="M13 8V7H11V8H9V10H11V11H13V10H15V8H13Z" fill="currentColor" />
	<path d="M6 12V11H4V12H2V14H4V15H6V14H8V12H6Z" fill="currentColor" />
	<path d="M13 13H11V22H13V13Z" fill="currentColor" />
	<path d="M6 17H4V22H6V17Z" fill="currentColor" />
	<path d="M20 19H18V22H20V19Z" fill="currentColor" />
	<path d="M20 2H18V11H20V2Z" fill="currentColor" />
	<path d="M20 14V13H18V14H16V16H18V17H20V16H22V14H20Z" fill="currentColor" />
</svg>
